<svg width="364" height="364" viewBox="0 0 364 364" fill="none" xmlns="http://www.w3.org/2000/svg">
<path d="M182 0C81.7556 0 0 81.7556 0 182C0 282.244 81.7556 364 182 364C282.244 364 364 282.244 364 182C364 81.7556 282.244 0 182 0ZM182 17.3333C272.711 17.3333 346.667 91.2889 346.667 182C346.667 272.711 272.711 346.667 182 346.667C91.2889 346.667 17.3333 272.711 17.3333 182C17.3333 91.2889 91.2889 17.3333 182 17.3333ZM181.853 77.7122C155.203 77.7122 128.556 87.8233 108.333 108.046C67.8889 148.49 67.8889 214.647 108.333 255.091C128.556 275.313 155.133 285.424 182 285.424C195 285.424 207.71 283.113 219.843 278.202C232.843 273.002 244.979 265.487 255.379 254.798C272.134 238.042 281.666 217.242 284.843 195.576C287.732 174.487 284.268 152.82 274.157 133.464C272.423 130.576 267.509 130.288 264.909 133.177L188.647 222.444C187.202 224.178 184.888 225.333 182.288 225.333H182C179.689 225.333 177.379 224.466 175.934 222.732L132.889 179.687C130 176.798 129.133 171.891 131.444 168.424C134.622 163.802 140.977 163.224 144.732 166.98L181.424 203.667L256.242 116.424C258.264 114.113 257.977 110.643 255.954 108.621L255.379 108.046C235.157 87.8233 208.503 77.7122 181.853 77.7122Z" fill="white"/>
</svg>
